<svg xmlns="http://www.w3.org/2000/svg" width="26" height="21" viewBox="0 0 26 21">
  <defs>
    <style>
      .cls-1 {
        fill: #fff;
        fill-rule: evenodd;
      }
    </style>
  </defs>
  <path id="search.svg" class="cls-1" d="M1510.63,89.094a2.1,2.1,0,0,1-2.92.531l-8.62-5.973a2.1,2.1,0,0,1-.9-1.8,7.632,7.632,0,1,1-1.23-11.5,7.66,7.66,0,0,1,2.51,9.64,2.1,2.1,0,0,1,2.01.209l8.62,5.973A2.1,2.1,0,0,1,1510.63,89.094Zm-12.78-13.415a5.25,5.25,0,0,0-2.2-3.424A5.347,5.347,0,1,0,1497.85,75.679Z" transform="translate(-1485 -69)"/>
</svg>
